PathFileType	4	(X / Y / Z)	Demo_151852_11_September_2019	Demo_151852_11_September_2019.trc
DataRate	CameraRate	NumFrames	NumMarkers	Units	OrigDataRate	OrigDataStartFrame	OrigNumFrames
50	50	8	25	m	50	1603	2071
Frame#	Time		SpineBase		SpineMid		Neck		Head		ShoulderLeft		ElbowLeft		WristLeft		HandLeft		ShoulderRight		ElbowRight		WristRight		HandRight		HipLeft		KneeLeft		AnkleLeft		FootLeft		HipRight		KneeRight		AnkleRight		FootRight		SpineShoulder		HandTipLeft		LeftThumb		HandTipRight		ThumbRight		
X1	Y1	Z1	X2	Y2	Z2	X3	Y3	Z3	X4	Y4	Z4	X5	Y5	Z5	X6	Y6	Z6	X7	Y7	Z7	X8	Y8	Z8	X9	Y9	Z9	X10	Y10	Z10	X11	Y11	Z11	X12	Y12	Z12	X13	Y13	Z13	X14	Y14	Z14	X15	Y15	Z15	X16	Y16	Z16	X17	Y17	Z17	X18	Y18	Z18	X19	Y19	Z19	X20	Y20	Z20	X21	Y21	Z21	X22	Y22	Z22	X23	Y23	Z23	X24	Y24	Z24	X25	Y25	Z25	
1554	44.956	0.078	0.717	1.494	0.069	1.015	1.455	0.059	1.300	1.404	0.065	1.448	1.392	-0.061	1.196	1.363	-0.086	1.031	1.242	0.060	1.234	1.312	0.082	1.311	1.348	0.242	1.187	1.424	0.448	1.141	1.418	0.576	1.322	1.416	0.606	1.399	1.410	0.006	0.724	1.454	-0.048	0.433	1.526	-0.031	0.282	1.573	-0.010	0.270	1.528	0.146	0.721	1.467	0.185	0.422	1.525	0.163	0.277	1.587	0.145	0.266	1.556	0.061	1.230	1.419	0.127	1.365	1.354	0.102	1.290	1.366	0.676	1.501	1.421	0.637	1.467	1.363
1555	44.973	0.077	0.717	1.493	0.069	1.015	1.455	0.059	1.300	1.405	0.066	1.448	1.392	-0.061	1.196	1.363	-0.086	1.031	1.242	0.060	1.234	1.312	0.082	1.311	1.348	0.246	1.188	1.426	0.452	1.183	1.418	0.559	1.396	1.412	0.586	1.474	1.412	0.005	0.724	1.454	-0.048	0.433	1.526	-0.031	0.282	1.573	-0.011	0.270	1.528	0.145	0.721	1.466	0.184	0.422	1.524	0.162	0.278	1.587	0.145	0.267	1.555	0.061	1.230	1.419	0.127	1.366	1.354	0.102	1.290	1.366	0.648	1.561	1.422	0.597	1.520	1.373
1556	44.990	0.077	0.717	1.493	0.069	1.015	1.455	0.059	1.300	1.405	0.066	1.448	1.392	-0.061	1.196	1.363	-0.086	1.031	1.242	0.060	1.234	1.312	0.082	1.311	1.348	0.246	1.188	1.426	0.452	1.183	1.418	0.559	1.396	1.412	0.586	1.474	1.412	0.005	0.724	1.454	-0.048	0.433	1.526	-0.031	0.282	1.573	-0.011	0.270	1.528	0.145	0.721	1.466	0.184	0.422	1.524	0.162	0.278	1.587	0.145	0.267	1.555	0.061	1.230	1.419	0.127	1.366	1.354	0.102	1.290	1.366	0.648	1.561	1.422	0.597	1.520	1.373
1557	45.007	0.076	0.717	1.493	0.069	1.015	1.455	0.060	1.300	1.406	0.066	1.448	1.392	-0.061	1.196	1.364	-0.086	1.032	1.242	0.060	1.235	1.312	0.082	1.312	1.348	0.249	1.189	1.426	0.455	1.200	1.418	0.551	1.425	1.412	0.575	1.493	1.414	0.004	0.725	1.454	-0.049	0.433	1.526	-0.031	0.282	1.573	-0.011	0.270	1.528	0.144	0.721	1.466	0.183	0.422	1.523	0.162	0.278	1.586	0.145	0.267	1.555	0.062	1.231	1.420	0.128	1.367	1.355	0.102	1.290	1.366	0.629	1.585	1.423	0.572	1.555	1.394
1558	45.023	0.076	0.717	1.493	0.069	1.015	1.455	0.060	1.300	1.406	0.066	1.448	1.392	-0.061	1.196	1.364	-0.086	1.032	1.242	0.060	1.235	1.312	0.082	1.312	1.348	0.249	1.189	1.426	0.455	1.200	1.418	0.551	1.425	1.412	0.575	1.493	1.414	0.004	0.725	1.454	-0.049	0.433	1.526	-0.031	0.282	1.573	-0.011	0.270	1.528	0.144	0.721	1.466	0.183	0.422	1.523	0.162	0.278	1.586	0.145	0.267	1.555	0.062	1.231	1.420	0.128	1.367	1.355	0.102	1.290	1.366	0.629	1.585	1.423	0.572	1.555	1.394
1559	45.040	0.076	0.717	1.493	0.069	1.015	1.456	0.060	1.301	1.407	0.067	1.448	1.393	-0.061	1.196	1.364	-0.086	1.032	1.242	0.060	1.235	1.312	0.082	1.312	1.348	0.252	1.191	1.427	0.456	1.209	1.418	0.550	1.434	1.413	0.573	1.494	1.417	0.004	0.725	1.453	-0.049	0.433	1.526	-0.031	0.282	1.573	-0.011	0.270	1.528	0.144	0.721	1.466	0.182	0.422	1.522	0.162	0.278	1.585	0.144	0.267	1.555	0.062	1.231	1.421	0.128	1.368	1.355	0.102	1.290	1.366	0.618	1.588	1.425	0.559	1.544	1.392
1560	45.057	0.076	0.717	1.493	0.069	1.015	1.456	0.060	1.301	1.407	0.067	1.448	1.393	-0.061	1.196	1.364	-0.086	1.032	1.242	0.060	1.235	1.312	0.082	1.312	1.348	0.252	1.191	1.427	0.456	1.209	1.418	0.550	1.434	1.413	0.573	1.494	1.417	0.004	0.725	1.453	-0.049	0.433	1.526	-0.031	0.282	1.573	-0.011	0.270	1.528	0.144	0.721	1.466	0.182	0.422	1.522	0.162	0.278	1.585	0.144	0.267	1.555	0.062	1.231	1.421	0.128	1.368	1.355	0.102	1.290	1.366	0.618	1.588	1.425	0.559	1.544	1.392
1561	45.073	0.075	0.717	1.493	0.069	1.015	1.456	0.061	1.301	1.408	0.067	1.448	1.393	-0.061	1.196	1.364	-0.086	1.033	1.242	0.060	1.235	1.312	0.082	1.312	1.348	0.254	1.192	1.428	0.457	1.216	1.418	0.552	1.431	1.414	0.578	1.483	1.417	0.004	0.725	1.453	-0.049	0.434	1.526	-0.031	0.282	1.573	-0.011	0.270	1.528	0.144	0.722	1.466	0.182	0.422	1.522	0.162	0.279	1.585	0.144	0.268	1.555	0.063	1.231	1.422	0.128	1.368	1.355	0.102	1.290	1.366	0.618	1.569	1.426	0.555	1.532	1.391
